<svg width="56" height="67" viewBox="0 0 56 67" fill="none" xmlns="http://www.w3.org/2000/svg">
<path d="M22.386 27.9777C20.5802 27.9777 19.1546 29.6451 19.1546 31.6792C19.1546 33.7133 20.6119 35.3807 22.386 35.3807C24.1917 35.3807 25.6173 33.7133 25.6173 31.6792C25.649 29.6451 24.1917 27.9777 22.386 27.9777ZM33.9491 27.9777C32.1434 27.9777 30.7178 29.6451 30.7178 31.6792C30.7178 33.7133 32.1751 35.3807 33.9491 35.3807C35.7549 35.3807 37.1805 33.7133 37.1805 31.6792C37.1805 29.6451 35.7549 27.9777 33.9491 27.9777Z" fill="white"/>
<path d="M49.3456 0H6.89442C3.31458 0 0.400024 3.06788 0.400024 6.86938V51.9539C0.400024 55.7554 3.31458 58.8233 6.89442 58.8233H42.8195L41.1405 52.6542L45.1955 56.6224L49.0288 60.3572L55.84 66.693V6.86938C55.84 3.06788 52.9255 0 49.3456 0ZM37.1171 43.5506C37.1171 43.5506 35.9767 42.1167 35.0263 40.8495C39.1763 39.6157 40.7603 36.8813 40.7603 36.8813C39.4615 37.7816 38.2259 38.4152 37.1171 38.8487C35.5331 39.549 34.0125 40.0158 32.5235 40.2826C29.4823 40.8828 26.6944 40.7161 24.3184 40.2493C22.5127 39.8824 20.9603 39.3489 19.6615 38.8153C18.9328 38.5152 18.1408 38.1484 17.3488 37.6816C17.2538 37.6149 17.1587 37.5815 17.0637 37.5148C17.0003 37.4815 16.9687 37.4481 16.937 37.4148C16.3667 37.0813 16.0499 36.8479 16.0499 36.8479C16.0499 36.8479 17.5706 39.5156 21.5939 40.7828C20.6435 42.05 19.4714 43.5506 19.4714 43.5506C12.4701 43.3171 9.80898 38.4819 9.80898 38.4819C9.80898 27.7443 14.3709 19.0409 14.3709 19.0409C18.9328 15.4394 23.273 15.5395 23.273 15.5395L23.5898 15.9396C17.8874 17.6737 15.2579 20.308 15.2579 20.308C15.2579 20.308 15.9549 19.9079 17.1271 19.341C20.5168 17.7737 23.2096 17.3402 24.3184 17.2402C24.5085 17.2068 24.6669 17.1735 24.857 17.1735C26.7895 16.9067 28.9754 16.84 31.2563 17.1068C34.2659 17.4736 37.4973 18.4073 40.792 20.308C40.792 20.308 38.2893 17.807 32.9037 16.073L33.3472 15.5395C33.3472 15.5395 37.6874 15.4394 42.2493 19.0409C42.2493 19.0409 46.8112 27.7443 46.8112 38.4819C46.8112 38.4819 44.1184 43.3171 37.1171 43.5506Z" fill="white"/>
</svg>
