<svg width="51" height="67" viewBox="0 0 51 67" fill="none" xmlns="http://www.w3.org/2000/svg">
<path d="M9.38055 0C4.19521 0 0 4.07828 0 9.17868V57.7731C0 62.8761 4.19521 67 9.38055 67H41.6684C46.8564 67 51 62.8735 51 57.7731V9.17868C51 4.07574 46.8538 0 41.6684 0H9.38055ZM9.33158 6.77419H17.5157C19.4676 6.77419 21.0096 8.33912 21.0096 10.2591V16.5415C21.0096 18.4614 19.4676 19.9781 17.5157 19.9781H9.33158C7.37966 19.9781 5.83771 18.4614 5.83771 16.5415V10.2591C5.83771 8.33912 7.37966 6.77419 9.33158 6.77419ZM27.7936 6.77419H42.2151C44.167 6.77419 45.7579 7.71268 45.7579 8.88443C45.7579 10.0562 44.167 11.0454 42.2151 11.0454H27.7936C25.8417 11.0454 24.2507 10.0562 24.2507 8.88443C24.2507 7.71522 25.8417 6.77419 27.7936 6.77419ZM27.0948 15.6587C27.3243 15.6308 27.5486 15.6587 27.7936 15.6587H42.2151C44.167 15.6587 45.7579 16.5972 45.7579 17.769C45.7579 18.9407 44.167 19.879 42.2151 19.879H27.7936C25.8417 19.879 24.2507 18.9382 24.2507 17.769C24.2507 16.7443 25.4884 15.8566 27.0948 15.6587ZM9.33158 24.495H42.2667C44.2186 24.495 45.7605 25.436 45.7605 26.6052C45.7605 27.7745 44.2186 28.7155 42.2667 28.7155H9.33158C7.37966 28.7155 5.83771 27.7745 5.83771 26.6052C5.83771 25.436 7.37966 24.495 9.33158 24.495ZM9.33158 33.2324H42.2667C44.2186 33.2324 45.7605 34.1709 45.7605 35.3427C45.7605 36.5144 44.2186 37.5034 42.2667 37.5034H9.33158C7.37966 37.5034 5.83771 36.5144 5.83771 35.3427C5.83771 34.1709 7.37966 33.2324 9.33158 33.2324ZM9.33158 41.9699H10.479C12.4309 41.9699 14.0218 42.9589 14.0218 44.1306C14.0218 45.3024 12.4309 46.2409 10.479 46.2409H9.33158C7.37966 46.2409 5.83771 45.2999 5.83771 44.1306C5.83771 42.9564 7.37966 41.9699 9.33158 41.9699ZM21.0586 41.9699H42.2667C44.2186 41.9699 45.7605 43.5348 45.7605 45.4547V49.4315C45.7605 51.3514 44.2186 52.9164 42.2667 52.9164H21.0586C19.1066 52.9164 17.5157 51.3514 17.5157 49.4315V45.4547C17.5157 43.5348 19.1066 41.9699 21.0586 41.9699ZM9.33158 48.6454H10.479C12.4309 48.6454 14.0218 49.6344 14.0218 50.8061C14.0218 51.9779 12.4309 52.9164 10.479 52.9164H9.33158C7.37966 52.9164 5.83771 51.9779 5.83771 50.8061C5.83771 49.6319 7.37966 48.6454 9.33158 48.6454ZM8.63282 57.4309C8.8623 57.403 9.08662 57.4309 9.33158 57.4309H42.2667C44.2186 57.4309 45.7605 58.3719 45.7605 59.5411C45.7605 60.7128 44.2186 61.6511 42.2667 61.6511H9.33158C7.37966 61.6511 5.83771 60.7128 5.83771 59.5411C5.83771 58.5164 7.02384 57.6261 8.63282 57.4309Z" fill="#FBFCFB"/>
</svg>
