<svg width="77" height="68" viewBox="0 0 77 68" fill="none" xmlns="http://www.w3.org/2000/svg">
<path d="M31.5023 67.7536C30.9785 67.5277 26.7644 64.7432 17.4693 58.476C14.7442 56.6384 8.88381 52.7092 3.50336 49.1085C0.427344 47.0503 0.00671463 46.5883 0.00413408 45.2718C0.00413408 44.1939 0.566693 43.3392 1.65569 42.7644L2.47888 42.3306L7.22967 45.4308C9.84377 47.1349 13.4204 49.4704 15.1803 50.6201C16.9403 51.7699 21.575 54.806 25.4819 57.3673L32.5836 62.0253L41.8503 56.5024C55.7105 48.2436 68.5152 40.6368 71.5654 38.8506L74.2724 37.2645L75.222 37.7957C76.5536 38.54 77.0465 39.3048 76.9536 40.4828C76.9123 41.0012 76.7239 41.6171 76.5252 41.8917C76.3187 42.174 72.9537 44.2965 68.4919 46.9553C40.4749 63.6576 33.9409 67.5303 33.381 67.7613C32.6068 68.0821 32.2688 68.0821 31.5023 67.7459V67.7536ZM31.732 56.2586C31.5307 56.2047 30.4598 55.5708 29.3553 54.8522C28.2483 54.1336 25.5748 52.4167 23.4123 51.0385C21.2498 49.6603 17.0332 46.963 14.0449 45.0459L4.64396 39.0199C2.10728 37.3928 0.556371 36.2815 0.331863 35.9274C-0.173925 35.1292 -0.050058 33.4688 0.564113 32.8143C0.97442 32.3755 2.5434 31.4644 2.87887 31.467C2.95886 31.467 4.68783 32.5525 6.72647 33.8768C8.7651 35.2011 11.1495 36.7461 12.0295 37.3107C12.9095 37.8753 17.8667 41.0576 23.0484 44.3812L32.4675 50.4225L33.381 49.9247C34.2532 49.4499 43.2645 44.2939 49.1094 40.9268C52.7532 38.8274 58.962 35.2935 61.9115 33.6381C64.6108 32.1239 70.8325 28.4386 72.7421 27.2221L74.0143 26.411L75.0904 26.9834C76.3755 27.6661 77 28.4899 77 29.5113C77 30.3274 76.4374 31.4515 75.8439 31.8262C75.493 32.0469 69.7925 35.3217 59.0781 41.4632C55.8756 43.2982 50.5623 46.347 41.7058 51.4362C34.0906 55.8094 33.3397 56.215 32.7255 56.2843C32.3771 56.3253 31.9333 56.315 31.732 56.2586ZM14.5404 33.6689C13.0591 33.2403 12.5043 32.9375 8.52253 30.3814C2.39889 26.4522 0.729268 25.2844 0.357669 24.6813C-0.140377 23.8703 -0.114572 22.5974 0.41186 21.8069C0.871198 21.1165 0.855713 21.1242 28.0754 7.50166C41.1536 0.957276 43.1716 -0.0025613 43.8812 5.12197e-06C44.5909 5.12197e-06 46.1263 0.739122 55.8601 5.76161C61.9993 8.92858 67.2713 11.6567 67.5733 11.821C67.8752 11.9852 69.9138 13.0451 72.1047 14.1769C76.4065 16.3995 76.791 16.7074 76.9458 18.0856C77.1135 19.5561 76.711 20.0258 73.5292 22.0995C67.8184 25.8183 57.2898 31.9186 54.717 32.994C52.2783 34.0154 52.379 34.0102 33.2468 33.9948C17.0512 33.9846 15.5519 33.964 14.5404 33.6689ZM18.997 28.2794C21.6808 27.6506 25.3426 25.2767 28.9785 21.812C31.2417 19.6537 31.5204 19.4664 32.4597 19.4664C33.3294 19.4664 33.9332 19.7999 34.9319 20.8368C35.3835 21.3064 36.475 22.2945 37.3576 23.0285C41.5381 26.5189 45.2128 28.2871 48.7404 28.5027C51.6229 28.6798 52.4074 28.3616 60.1697 23.8677C65.6327 20.7059 68.8145 18.7092 68.639 18.5527C68.5564 18.4808 67.5036 17.906 66.2959 17.2798C65.0882 16.6535 63.2792 15.7116 62.2728 15.1855C57.1917 12.537 46.8953 7.22451 45.445 6.50078L43.7986 5.67953L26.0161 14.5979C16.2358 19.5023 8.23351 23.5649 8.23351 23.6265C8.23351 23.7369 13.6836 27.3222 14.6075 27.8175C16.0629 28.6028 17.1338 28.7157 18.997 28.2794Z" fill="#FBFCFB"/>
</svg>
