<svg width="65" height="68" viewBox="0 0 65 68" fill="none" xmlns="http://www.w3.org/2000/svg">
<path fill-rule="evenodd" clip-rule="evenodd" d="M32.5032 0.361328C15.0646 0.361328 0.920044 15.6651 0.920044 34.5329C0.920044 49.627 10.0268 62.4151 22.4276 67.0273C23.9777 67.2369 24.5589 66.1887 24.5589 65.3501C24.5589 64.5116 24.5589 62.4151 24.5589 59.4802C15.8397 61.5766 13.9021 54.8681 13.9021 54.8681C12.5457 50.8849 10.4144 49.8367 10.4144 49.8367C7.50793 47.7403 10.6081 47.7403 10.6081 47.7403C13.7083 47.9499 15.4522 51.3042 15.4522 51.3042C18.3586 56.5452 22.8151 55.0777 24.5589 54.2391C24.7527 51.9331 25.7215 50.4656 26.4966 49.627C19.5211 48.7885 12.1582 45.8535 12.1582 32.6461C12.1582 28.8725 13.3208 25.9376 15.4522 23.4219C15.2584 22.7929 14.0958 19.229 15.8397 14.6169C15.8397 14.6169 18.5523 13.7784 24.5589 18.1808C27.0778 17.3423 29.7905 17.1326 32.5032 17.1326C35.2158 17.1326 37.9285 17.5519 40.4474 18.1808C46.454 13.7784 49.1666 14.6169 49.1666 14.6169C50.9105 19.229 49.7479 22.7929 49.5542 23.6315C51.4918 25.9376 52.8481 29.0822 52.8481 32.8557C52.8481 46.0631 45.4852 48.7885 38.5098 49.627C39.6723 50.6752 40.6411 52.7716 40.6411 55.9163C40.6411 60.5284 40.6411 64.0923 40.6411 65.3501C40.6411 66.1887 41.2224 67.2369 42.7725 67.0273C55.367 62.4151 64.28 49.627 64.28 34.5329C64.0863 15.6651 49.9417 0.361328 32.5032 0.361328Z" fill="white"/>
</svg>
