<svg width="58" height="68" viewBox="0 0 58 68" fill="none" xmlns="http://www.w3.org/2000/svg">
<path d="M28.9784 1.1267e-05C27.8665 1.1267e-05 26.7776 0.42648 25.9252 1.27699L1.55087 25.5991C-0.153803 27.3001 -0.850939 31.5145 1.55087 31.7405L7.55796 32.3294V63.6281C7.55796 66.0349 9.52979 68 11.9392 68H19.6205C22.0324 68 22.6329 65.8851 22.6329 62.8664V42.533C23.358 40.6542 24.938 39.3289 26.7699 39.3289H31.5863C33.4182 39.3289 34.9549 40.6568 35.6622 42.533V62.8664C35.6622 65.8851 36.2652 68 38.6747 68H46.3559C48.7679 68 50.7372 66.0324 50.7372 63.6281V32.2786L56.4491 31.7379C58.8509 31.5119 58.1538 27.2975 56.4491 25.5965L32.0748 1.27451C31.2275 0.424001 30.0902 -0.00252756 28.9784 1.1267e-05Z" fill="#FBFCFB"/>
</svg>
