<svg width="14" height="17" viewBox="0 0 14 17" fill="none" xmlns="http://www.w3.org/2000/svg">
<path d="M12.5 7.4375H11.75V5.04688C11.75 2.26445 9.61875 0 7 0C4.38125 0 2.25 2.26445 2.25 5.04688V7.4375H1.5C0.671875 7.4375 0 8.15137 0 9.03125V15.4062C0 16.2861 0.671875 17 1.5 17H12.5C13.3281 17 14 16.2861 14 15.4062V9.03125C14 8.15137 13.3281 7.4375 12.5 7.4375ZM9.25 7.4375H4.75V5.04688C4.75 3.72871 5.75938 2.65625 7 2.65625C8.24063 2.65625 9.25 3.72871 9.25 5.04688V7.4375Z" fill="#C9DBE4"/>
</svg>
