<svg width="66" height="51" viewBox="0 0 66 51" fill="none" xmlns="http://www.w3.org/2000/svg">
<path d="M53.232 0.00339285C48.3562 -0.0121072 41.6029 0.0292112 32.5166 0.0524613L3.23117 0.10153C3.21346 0.10153 3.19826 0.10153 3.18308 0.10153C1.44225 0.10153 0 1.52486 0 3.3022C0 3.32545 0 3.3359 0 3.3514L0.0986846 25.6999L0.197369 47.5989C0.192309 47.666 0.197369 47.7306 0.197369 47.7978C0.197369 49.5751 1.59156 50.9986 3.33239 50.9986H3.47913H32.8127C50.5525 50.9986 58.5861 51.0296 62.2904 50.7997C62.7003 50.7687 63.0925 50.6653 63.4645 50.6008C64.6107 50.2365 65.4482 49.2419 65.6203 48.0019C65.6608 47.8391 65.6658 47.6918 65.6683 47.5523C65.7442 43.9047 65.8505 35.3512 65.9138 25.6533C65.9998 12.2199 66.0732 6.08455 65.8657 3.25578C65.8935 1.53528 64.4361 0.14027 62.7307 0.15577C61.086 0.0937696 58.1079 0.016249 53.2295 0.00591565L53.232 0.00339285ZM9.01285 5.20364H33.1543C46.4357 5.20364 57.3032 5.32757 57.2956 5.45415C57.2881 5.58332 52.1845 10.9722 45.9828 17.4021C36.1197 27.6322 34.5712 29.0737 33.6426 29.2002C33.0581 29.2777 32.3268 29.2236 31.9777 29.0014C31.4463 28.6734 13.3472 9.98275 10.0402 6.35315L9.01285 5.20364ZM5.19467 9.10186L13.079 17.1516C17.4134 21.5743 20.9634 25.2632 20.9634 25.3511C20.9634 25.4389 17.4033 29.1926 13.079 33.7005L5.19467 41.9V25.5009V9.10186ZM60.4787 9.85366L60.6736 12.703C60.7798 14.2789 60.8988 21.4632 60.919 28.6527C60.9367 35.8421 60.8482 41.7269 60.7242 41.7011C60.6002 41.6753 56.9895 38.0509 52.7411 33.6515L45.0541 25.6508L52.7411 17.7509L60.4787 9.85366ZM24.6829 29.0505L26.9854 31.3497C29.5208 33.8633 30.7378 34.4213 33.3516 34.4006C35.6137 34.3774 37.4178 33.5378 39.7659 31.3006L41.6762 29.4509L49.5125 37.6013L57.3488 45.7518H33.0125H8.67634L11.2724 43.0522C12.6843 41.5642 16.2596 37.8029 19.2554 34.7028L24.6829 29.0505Z" fill="#FBFCFB"/>
</svg>
