<svg width="69" height="62" viewBox="0 0 69 62" fill="none" xmlns="http://www.w3.org/2000/svg">
<path d="M50 0.102021C48.7614 0.130118 47.4873 0.00493317 46.2944 0.395739C45.3579 0.686927 44.5051 1.17998 43.6751 1.69084C40.6827 3.6372 38.5482 6.90411 38.0482 10.4827C37.868 11.5197 37.7031 12.5849 37.764 13.6321C38.5863 14.0255 39.4772 14.2834 40.3071 14.6742C42.0888 15.4685 43.6472 16.7227 44.9645 18.1531C48.533 22.1123 50.1523 27.7522 49.2437 33.0242C48.8426 35.4636 47.9239 37.811 46.5761 39.8723C46.5229 40.0255 46.3706 40.1174 46.3173 40.2681C48.3401 41.7011 50.1142 43.4483 51.8223 45.2414C52.2183 45.2644 52.6168 45.2183 53.0127 45.2566H69C68.8883 42.6972 68.6371 40.0944 67.7284 37.6934C65.9899 32.7023 62.5838 28.2656 57.9949 25.6449C57.3376 25.2541 56.6726 24.8761 56.0127 24.4878C57.533 22.6717 59.0914 20.8045 59.8858 18.5414C61.269 15.0292 61.264 10.9373 59.7107 7.48388C58.4696 4.60009 56.2234 2.13528 53.3503 0.850471C52.3096 0.347277 51.1548 0.0943081 50 0.114742V0.102021ZM19.7538 0.0023689C16.8376 -0.0665968 14.033 1.37657 12.0939 3.5094C9.29188 6.4647 7.99493 10.6972 8.40609 14.7406C8.69797 17.8696 10.0254 20.9168 12.198 23.1825C12.5939 23.6346 12.9924 24.0842 13.3858 24.5415C10.6802 25.7522 8.13452 27.4328 6.19543 29.6857C3.48731 32.7534 1.66752 36.5491 0.708124 40.5236C0.34518 42.0817 0.126904 43.673 0 45.2694C3.06345 45.2184 6.12945 45.2694 9.19543 45.249H17.4442C19.1421 43.4993 20.835 41.7062 22.8452 40.3269C22.533 39.6755 22.1802 39.0165 21.8223 38.3754C20.9873 36.9194 20.4619 35.3026 20.1066 33.6653C19.1168 28.9271 20.066 23.765 22.8909 19.8263C24.2132 17.8824 25.934 16.1736 28.0609 15.1442C29.1066 14.5772 30.198 14.0433 31.3503 13.7572C31.434 13.5656 31.4213 13.3 31.4492 13.0804C31.4822 9.54522 30.1371 5.99472 27.7183 3.45065C26.0305 1.64988 23.7183 0.393259 21.2563 0.0892994C20.7614 0.0254423 20.2563 -0.00784824 19.7538 0.0023689ZM33.7031 16.6588C32.5838 16.6742 31.4822 16.9654 30.4975 17.4992C27.8782 18.7151 25.6396 20.7866 24.4137 23.4328C22.5431 27.3128 22.533 32.028 24.1853 35.9897C24.8858 37.6423 25.9569 39.1392 27.2589 40.3627C27.5025 40.6155 27.736 40.8607 27.9721 41.1212C25.8528 42.2119 23.6827 43.3511 22.0076 45.0804C18.4746 48.5031 16.1447 53.1417 15.1701 57.977C14.9137 59.3027 14.7665 60.6845 14.6497 62C17.3223 61.9489 19.9949 62 22.6675 61.9795H54.6041C54.3858 59.1085 53.8883 56.24 52.7817 53.5734C50.967 48.9756 47.802 44.8276 43.5051 42.3422C42.7792 41.9055 42.0432 41.4891 41.3147 41.0549C42.8579 39.438 44.4366 37.7444 45.2386 35.6142C47.3858 30.4239 46.269 23.954 42.302 19.954C40.835 18.4904 38.9797 17.4175 37 16.8224C35.9213 16.5874 34.802 16.6844 33.7031 16.6588Z" fill="#FBFCFB"/>
</svg>
