<svg width="73" height="64" viewBox="0 0 73 64" fill="none" xmlns="http://www.w3.org/2000/svg">
<path d="M4.99087 27.5393C24.4792 18.5116 37.4745 12.56 43.9768 9.68446C62.542 1.47425 66.3996 0.0480527 68.914 0.000456565C69.467 -0.0093991 70.7036 0.13632 71.5045 0.827338C72.1808 1.41082 72.3669 2.19902 72.4559 2.75223C72.545 3.30543 72.6559 4.56564 72.5677 5.55034C71.5617 16.7895 67.2085 44.0639 64.9938 56.652C64.0567 61.9785 62.2116 63.7644 60.4252 63.9392C56.5431 64.319 53.5951 61.2113 49.8351 58.5907C43.9513 54.49 40.6274 51.9372 34.9162 47.9356C28.3159 43.3111 32.5946 40.7694 36.3561 36.6155C37.3405 35.5284 54.4453 18.9864 54.7764 17.4858C54.8178 17.2981 54.8562 16.5985 54.4653 16.2291C54.0745 15.8597 53.4975 15.986 53.0812 16.0865C52.4911 16.2289 43.0917 22.8344 24.8832 35.903C22.2152 37.8509 19.7986 38.7999 17.6334 38.7502C15.2465 38.6954 10.6551 37.3153 7.24176 36.1356C3.05523 34.6886 -0.272152 33.9236 0.017588 31.4663C0.168502 30.1863 1.82626 28.8773 4.99087 27.5393Z" fill="white"/>
</svg>
