<svg width="73" height="58" viewBox="0 0 73 58" fill="none" xmlns="http://www.w3.org/2000/svg">
<path d="M72.24 7.04035C69.567 8.35955 66.894 8.79929 63.7755 9.23902C66.894 7.48009 69.1215 4.84168 70.0125 1.3238C67.3395 3.08274 64.221 3.96221 60.657 4.84168C57.984 2.20327 53.9745 0.444336 49.965 0.444336C40.6095 0.444336 33.4815 9.23902 35.709 18.0337C23.6805 17.594 12.9885 11.8774 5.41502 3.08274C1.40552 9.67876 3.63302 18.0337 9.87002 22.4311C7.64252 22.4311 5.41502 21.5516 3.18752 20.6721C3.18752 27.2681 8.08802 33.4244 14.7705 35.1833C12.543 35.6231 10.3155 36.0628 8.08802 35.6231C9.87002 41.3396 15.216 45.737 21.8985 45.737C16.5525 49.6946 8.53352 51.8933 0.960022 51.0138C7.64252 54.9714 15.216 57.6098 23.235 57.6098C50.4105 57.6098 65.5575 35.1833 64.6665 14.5158C67.785 12.7569 70.458 10.1185 72.24 7.04035Z" fill="white"/>
</svg>
